<?xml version="1.0" ?>
<!-- Uploaded to: SVG Repo, www.svgrepo.com, Generator: SVG Repo Mixer Tools -->
<svg width="800px" height="800px" viewBox="0 0 117 117" version="1.1" xmlns="http://www.w3.org/2000/svg" xmlns:xlink="http://www.w3.org/1999/xlink">
<title/>
<desc/>
<defs/>
<g fill="none" fill-rule="evenodd" id="Page-1" stroke="none" stroke-width="1">
<g fill-rule="nonzero" id="presentation">
<path d="M4.6,29.7 L11.1,29.7 L11.1,77.3 C11.1,79.6 12.9,81.4 15.2,81.4 L30.2,81.4 L11.7,110.2 C10.5,112.1 11,114.6 12.9,115.8 C13.6,116.2 14.3,116.4 15.1,116.4 C16.4,116.4 17.8,115.7 18.5,114.5 L39.8,81.3 L77,81.3 L98.3,114.6 C99.1,115.8 100.4,116.5 101.7,116.5 C102.5,116.5 103.2,116.3 103.9,115.9 C105.8,114.7 106.4,112.2 105.1,110.3 L86.7,81.4 L101.8,81.4 C104.1,81.4 105.9,79.6 105.9,77.3 L105.9,29.7 L112.4,29.7 C114.7,29.7 116.5,27.9 116.5,25.6 L116.5,4.5 C116.5,2.2 114.7,0.4 112.4,0.4 L4.6,0.4 C2.3,0.4 0.5,2.2 0.5,4.5 L0.5,25.6 C0.5,27.9 2.3,29.7 4.6,29.7 Z M97.7,73.3 L80.4,73.3 C79.5,73 78.6,73 77.7,73.3 L37.9,73.3 C37.8,73.3 37.7,73.3 37.5,73.3 L19.3,73.3 L19.3,29.7 L97.8,29.7 L97.8,73.3 L97.7,73.3 Z M8.5,8.6 L108.2,8.6 L108.2,21.5 L101.7,21.5 L15.1,21.5 L8.6,21.5 L8.6,8.6 L8.5,8.6 Z" fill="#4A4A4A" id="Shape"/>
<path d="M31.4,65.3 C32.4,65.3 33.5,64.9 34.3,64.1 L40.8,57.6 L54.2,61.1 C55.7,61.5 57.3,61 58.4,59.8 L72,43.6 C73.5,41.9 73.2,39.3 71.5,37.8 C69.8,36.3 67.2,36.6 65.7,38.3 L53.7,52.5 L40.5,49.1 C39.1,48.7 37.6,49.1 36.6,50.2 L28.4,58.4 C26.8,60 26.8,62.6 28.4,64.2 C29.3,64.9 30.3,65.3 31.4,65.3 Z" fill="#17AB13" id="Shape"/>
</g>
</g>
</svg>