<?xml version="1.0" encoding="iso-8859-1"?>
<!-- Uploaded to: SVG Repo, www.svgrepo.com, Generator: SVG Repo Mixer Tools -->
<svg version="1.1" id="Layer_1" xmlns="http://www.w3.org/2000/svg" xmlns:xlink="http://www.w3.org/1999/xlink" 
	 viewBox="0 0 512 512" xml:space="preserve">
<path style="fill:#E2AF7D;" d="M298.47,324.077c-7.924,2.464-16.343,3.799-25.077,3.799h-0.002h-34.784l0,0
	c-8.734,0-17.155-1.335-25.077-3.799c-1.134-0.352-2.254-0.727-3.365-1.125v21.478L256,403.334l45.834-58.903v-21.478
	C300.724,323.349,299.602,323.725,298.47,324.077z"/>
<path style="fill:#DB995D;" d="M232.524,349.912v-14.378v-7.881c-6.567-0.471-12.927-1.689-18.992-3.575
	c-1.134-0.352-2.254-0.727-3.365-1.125v21.478l22.357,28.732V349.912z"/>
<g>
	<path style="fill:#7C7A75;" d="M357.829,140.783v14.612v10.647v14.612c13.422,0,24.541,9.85,26.53,22.714v-14.612v-33.362v-14.612
		h-26.53V140.783z"/>
	<path style="fill:#7C7A75;" d="M127.325,155.395v37.493v14.612c0-14.827,12.02-26.846,26.848-26.846v-14.612v-10.647v-14.612
		h-26.848V155.395z"/>
</g>
<path style="fill:#36A1CB;" d="M98.864,362.042c-34.769,11.642-59.834,44.453-59.834,83.14v53.403
	c0,7.409,6.006,13.415,13.415,13.415h46.419V362.042z"/>
<path style="fill:#2B80AF;" d="M61.387,498.585v-53.403c0-29.744,14.826-56.001,37.475-71.848v-11.292
	c-34.769,11.642-59.834,44.453-59.834,83.14v53.403c0,7.409,6.007,13.415,13.415,13.415h22.358
	C67.394,512,61.387,505.995,61.387,498.585z"/>
<g>
	<path style="fill:#36A1CB;" d="M413.08,362.024V512h46.476c7.408,0,13.415-6.005,13.415-13.415v-53.403
		C472.971,406.474,447.877,373.649,413.08,362.024z"/>
	<path style="fill:#36A1CB;" d="M336.894,512h39.928V357.844c0-0.115,0.016-0.229,0.018-0.345h-40.103l0,0l-80.736,45.834
		l-0.129-0.127l0.101,0.127l-80.738-45.834l0,0h-42.366c0.004,0.116,0.018,0.229,0.018,0.345V512h173.825"/>
</g>
<g>
	<path style="fill:#FFB92E;" d="M285.66,124.574h86.786c-4.994-49.025-40.253-89.072-86.786-101.23L285.66,124.574L285.66,124.574z"
		/>
	<path style="fill:#FFB92E;" d="M226.34,23.344c-46.533,12.157-81.793,52.204-86.786,101.23h86.786V23.344z"/>
</g>
<path style="fill:#FFAB31;" d="M226.34,32.341v-8.997c-46.533,12.157-81.793,52.204-86.786,101.23h23.552
	C167.215,84.232,191.827,49.986,226.34,32.341z"/>
<path style="fill:#F28838;" d="M285.66,124.574V14.831C285.66,6.639,279.021,0,270.831,0H241.17c-8.19,0-14.83,6.639-14.83,14.831
	v109.742H285.66z"/>
<path style="fill:#EF711D;" d="M262.707,0h-21.539c-8.19,0-14.83,6.639-14.83,14.831v109.742h21.539V14.831
	C247.877,6.639,254.518,0,262.707,0z"/>
<g>
	<path style="fill:#F28838;" d="M176.63,140.783c-4.631,0-8.384-3.753-8.384-8.384V49.704c0-4.631,3.753-8.384,8.384-8.384
		c4.63,0,8.384,3.753,8.384,8.384v82.695C185.014,137.029,181.26,140.783,176.63,140.783z"/>
	<path style="fill:#F28838;" d="M335.372,140.783c-4.632,0-8.384-3.753-8.384-8.384V49.704c0-4.631,3.753-8.384,8.384-8.384
		c4.63,0,8.384,3.753,8.384,8.384v82.695C343.757,137.029,340.003,140.783,335.372,140.783z"/>
</g>
<g>
	<path style="fill:#E2AF7D;" d="M154.171,179.538c-14.828,0-26.848,12.02-26.848,26.846s12.02,26.846,26.848,26.846V179.538z"/>
	<path style="fill:#E2AF7D;" d="M357.829,179.538c14.828,0,26.848,12.02,26.848,26.846s-12.02,26.846-26.848,26.846V179.538z"/>
</g>
<path style="fill:#F2CB9C;" d="M287.87,155.395H224.13h-69.958v88.045c0,46.632,37.803,84.435,84.436,84.435h34.784
	c46.633,0,84.436-37.803,84.436-84.435v-88.045L287.87,155.395L287.87,155.395z"/>
<path style="fill:#EDBD88;" d="M176.63,243.44v-88.045h-22.459v88.045c0,46.632,37.803,84.435,84.436,84.435h22.456
	C214.433,327.876,176.63,290.071,176.63,243.44z"/>
<path style="fill:#F28838;" d="M391.066,140.675v-3.616c0-8.129-6.59-14.721-14.721-14.721h-88.477h-63.741h-88.475
	c-8.132,0-14.721,6.591-14.721,14.721v3.616c0,8.129,6.589,14.721,14.721,14.721h88.475h63.741h88.477
	C384.477,155.395,391.066,148.804,391.066,140.675z"/>
<path style="fill:#EF711D;" d="M142.472,140.675v-3.616c0-8.129,6.59-14.721,14.718-14.721h-21.538
	c-8.132,0-14.721,6.591-14.721,14.721v3.616c0,8.129,6.589,14.721,14.721,14.721h21.538
	C149.062,155.395,142.472,148.804,142.472,140.675z"/>
<g>
	<path style="fill:#8BD8F7;" d="M301.833,413.235l34.904-55.735l-34.902-13.069l-45.834,58.903l20.62,14.288
		C277.228,418.031,292.502,428.132,301.833,413.235z"/>
	<path style="fill:#8BD8F7;" d="M210.14,413.235L175.235,357.5l34.904-13.069l45.834,58.903l-20.62,14.288
		C234.745,418.031,219.47,428.132,210.14,413.235z"/>
</g>
<path style="fill:#2B80AF;" d="M255.973,403.334l-8.384,5.81v67.064c0,4.632,3.753,8.384,8.384,8.384
	c4.63,0,8.384-3.753,8.384-8.384v-67.084l-8.356-5.791h-0.028V403.334z"/>
<g>
	<polyline style="fill:#FFB92E;" points="120.905,512 120.905,476.208 391.038,476.208 391.038,512 	"/>
	<path style="fill:#FFB92E;" d="M401.901,344.43h-21.725c-7.408,0-13.415,6.006-13.415,13.415v60.252h48.555v-60.252
		C415.316,350.437,409.312,344.43,401.901,344.43z"/>
	<path style="fill:#FFB92E;" d="M131.767,344.43h-21.724c-7.408,0-13.415,6.006-13.415,13.415v60.252h48.555v-60.252
		C145.182,350.437,139.178,344.43,131.767,344.43z"/>
</g>
<rect x="366.762" y="414.519" style="fill:#F28838;" width="48.551" height="97.481"/>
<path style="fill:#EF9A1D;" d="M110.043,344.43c-7.408,0-13.415,6.006-13.415,13.415v60.252h22.358v-60.252
	c0-7.301,5.839-13.229,13.098-13.398c-0.106-0.003-0.21-0.017-0.316-0.017H110.043z"/>
<rect x="96.632" y="414.519" style="fill:#F28838;" width="48.551" height="97.481"/>
<rect x="96.632" y="414.519" style="fill:#EF711D;" width="22.358" height="97.481"/>
<path style="fill:#EF9A1D;" d="M380.176,344.43c-7.408,0-13.415,6.006-13.415,13.415v63.501h22.358v-63.501
	c0-7.301,5.839-13.229,13.098-13.398c-0.106-0.003-0.21-0.017-0.316-0.017L380.176,344.43L380.176,344.43z"/>
<rect x="366.762" y="414.519" style="fill:#EF711D;" width="22.358" height="97.481"/>
</svg>